<?xml version="1.0" encoding="utf-8"?>
<!-- Generator: Adobe Illustrator 19.0.0, SVG Export Plug-In . SVG Version: 6.00 Build 0)  -->
<svg version="1.1" id="Layer_1" xmlns="http://www.w3.org/2000/svg" xmlns:xlink="http://www.w3.org/1999/xlink" x="0px" y="0px"
	 viewBox="-709 291 500 500" style="enable-background:new -709 291 500 500;" xml:space="preserve">
<style type="text/css">
	.st0{fill:url(#bottom_1_);}
	.st1{fill:url(#middle_1_);}
	.st2{fill:url(#top_1_);}
</style>
<g>
	
		<linearGradient id="bottom_1_" gradientUnits="userSpaceOnUse" x1="-474.4373" y1="414.5" x2="-303.925" y2="414.5" gradientTransform="matrix(1 0 0 -1 0 1084)">
		<stop  offset="0" style="stop-color:#3FC9A8"/>
		<stop  offset="1" style="stop-color:#3DB2BC"/>
	</linearGradient>
	<path id="bottom" class="st0" d="M-343.5,636.7l38.3-38.3c1.7-1.7,1.7-4.6,0-6.3l-5.2-5.2c-1.7-1.7-4.6-1.7-6.3,0l-103.5,103.6l0,0
		l-52.9,52.9c-2.6,2.6-1.2,7,2.4,7.5c10,1.6,20.4,2.4,31.3,2.4c49.8,0,89.7-17.9,119.7-53.6c3.4-4.2,5.1-7.7,5.1-10.3
		c0-1.8-6-11.7-17.9-29.9c-4.6-6.9-8.4-12.6-11.6-17.2C-345.2,640.6-345,638.2-343.5,636.7z"/>
	
		<linearGradient id="middle_1_" gradientUnits="userSpaceOnUse" x1="-614.075" y1="547.6229" x2="-314.8" y2="547.6229" gradientTransform="matrix(1 0 0 -1 0 1084)">
		<stop  offset="0" style="stop-color:#63E6EE"/>
		<stop  offset="1" style="stop-color:#283C81"/>
	</linearGradient>
	<path id="middle" class="st1" d="M-319.7,442c3.3,3.6,4.9,6.8,4.9,9.5c0,3.1-5.7,14.6-17,34.5s-18.5,31.1-21.4,33.5
		c-1.3,1.3-2.9,2-4.9,2c-0.8,0-4.9-3.3-12.2-9.8c-8.8-7.8-17.5-14-25.9-18.4c-12.9-6.5-26.3-9.8-40.1-9.8c-24,0-43.2,9-57.5,26.9
		c-13.2,16.6-19.8,37.2-19.8,61.7c0,0.7,0,1.4,0,2.1c0,1.2-0.4,2.4-1.3,3.3l-73.5,73.5c-2.3,2.3-6.1,1.5-7.3-1.5
		c-6.3-15.8-10.5-32.9-12.4-51.3c-0.1-1.3,0.3-2.7,1.3-3.6l3.2-3.2l0,0l261-261.5c1.7-1.7,4.6-1.7,6.3,0l5.2,5.2
		c1.7,1.7,1.7,4.5,0,6.3l-53.1,53.6c-2.3,2.4-1.4,6.3,1.8,7.4C-357.8,410.1-336.9,423.4-319.7,442z M-436.4,662
		c-24,0-43.2-9.1-57.5-27.4c-4.3-5.4-7.8-11.3-10.7-17.5c-0.8-1.7-0.4-3.7,0.9-5l19.5-19.5c1.7-1.7,1.7-4.6,0-6.3l-5.2-5.2
		c-1.7-1.7-4.6-1.7-6.3,0l-117.1,117.1c-1.7,1.7-1.7,4.6,0,6.3l5.2,5.2c1.7,1.7,4.6,1.7,6.3,0l21.2-21.2c1.9-1.9,5-1.7,6.7,0.5
		c3.2,4.2,6.6,8.3,10.2,12.3c18,19.8,39.2,33.9,63.4,42.5c1.6,0.6,3.4,0.1,4.6-1.1l73.7-73.7c3-3,0.5-8.1-3.7-7.5
		C-428.9,661.8-432.6,662-436.4,662z"/>
	
		<linearGradient id="top_1_" gradientUnits="userSpaceOnUse" x1="-609.2" y1="618.6" x2="-411.05" y2="618.6" gradientTransform="matrix(1 0 0 -1 0 1084)">
		<stop  offset="0" style="stop-color:#45E791"/>
		<stop  offset="1" style="stop-color:#3FC9A8"/>
	</linearGradient>
	<path id="top" class="st2" d="M-412.4,370.8l-5.2-5.2c-1.7-1.7-4.6-1.7-6.3,0l-26.6,26.6c-0.8,0.8-1.8,1.2-2.9,1.3
		c-44.4,2.2-81.4,20.2-110.8,54.1c-28,32.1-43,70.5-45,115.5c5.7,2.5,1.9,0.8,7.6,3.3L-429,393.7c0,0,0,0-0.1,0l16.7-16.6
		C-410.6,375.3-410.6,372.5-412.4,370.8z"/>
</g>
</svg>
