<?xml version="1.0" encoding="utf-8"?>
<!-- Generator: Adobe Illustrator 19.0.0, SVG Export Plug-In . SVG Version: 6.00 Build 0)  -->
<svg version="1.1" id="Layer_1" xmlns="http://www.w3.org/2000/svg" xmlns:xlink="http://www.w3.org/1999/xlink" x="0px" y="0px"
	 viewBox="0 0 35.1 48" style="enable-background:new 0 0 35.1 48;" xml:space="preserve">
<style type="text/css">
	.st0{fill:url(#XMLID_54_);}
	.st1{fill:url(#XMLID_55_);}
	.st2{fill:url(#XMLID_56_);}
</style>
<g id="XMLID_152_">
	<linearGradient id="XMLID_54_" gradientUnits="userSpaceOnUse" x1="0.5499" y1="15.5777" x2="22.9444" y2="15.5777">
		<stop  offset="0" style="stop-color:#45E791"/>
		<stop  offset="1" style="stop-color:#3FC9A8"/>
	</linearGradient>
	<path id="XMLID_161_" class="st0" d="M22.8,4.9l-0.6-0.6c-0.2-0.2-0.5-0.2-0.7,0l-3,3c-0.1,0.1-0.2,0.1-0.3,0.1
		c-5,0.2-9.2,2.3-12.5,6.1c-3.2,3.6-4.9,8-5.1,13c0.6,0.3,0.2,0.1,0.9,0.4L20.9,7.5c0,0,0,0,0,0l1.9-1.9C23,5.4,23,5.1,22.8,4.9z"/>
	<linearGradient id="XMLID_55_" gradientUnits="userSpaceOnUse" x1="2.362540e-007" y1="23.584" x2="33.8214" y2="23.584">
		<stop  offset="0" style="stop-color:#63E6EE"/>
		<stop  offset="1" style="stop-color:#283C81"/>
	</linearGradient>
	<path id="XMLID_156_" class="st1" d="M33.3,12.9c0.4,0.4,0.6,0.8,0.6,1.1c0,0.4-0.6,1.7-1.9,3.9c-1.3,2.2-2.1,3.5-2.4,3.8
		c-0.1,0.1-0.3,0.2-0.6,0.2c-0.1,0-0.6-0.4-1.4-1.1c-1-0.9-2-1.6-2.9-2.1c-1.5-0.7-3-1.1-4.5-1.1c-2.7,0-4.9,1-6.5,3
		c-1.5,1.9-2.2,4.2-2.2,7c0,0.1,0,0.2,0,0.2c0,0.1,0,0.3-0.1,0.4l-8.3,8.3c-0.3,0.3-0.7,0.2-0.8-0.2c-0.7-1.8-1.2-3.7-1.4-5.8
		c0-0.2,0-0.3,0.1-0.4l0.4-0.4l0,0L30.7,0.3c0.2-0.2,0.5-0.2,0.7,0L32,0.8c0.2,0.2,0.2,0.5,0,0.7l-6,6.1c-0.3,0.3-0.2,0.7,0.2,0.8
		C29,9.3,31.3,10.8,33.3,12.9z M20.1,37.8c-2.7,0-4.9-1-6.5-3.1c-0.5-0.6-0.9-1.3-1.2-2c-0.1-0.2,0-0.4,0.1-0.6l2.2-2.2
		c0.2-0.2,0.2-0.5,0-0.7l-0.6-0.6c-0.2-0.2-0.5-0.2-0.7,0L0.1,41.9c-0.2,0.2-0.2,0.5,0,0.7l0.6,0.6c0.2,0.2,0.5,0.2,0.7,0l2.4-2.4
		c0.2-0.2,0.6-0.2,0.8,0.1c0.4,0.5,0.7,0.9,1.2,1.4c2,2.2,4.4,3.8,7.2,4.8c0.2,0.1,0.4,0,0.5-0.1l8.3-8.3c0.3-0.3,0.1-0.9-0.4-0.9
		C20.9,37.8,20.5,37.8,20.1,37.8z"/>
	<linearGradient id="XMLID_56_" gradientUnits="userSpaceOnUse" x1="15.7867" y1="38.6433" x2="35.0527" y2="38.6433">
		<stop  offset="0" style="stop-color:#3FC9A8"/>
		<stop  offset="1" style="stop-color:#3DB2BC"/>
	</linearGradient>
	<path id="XMLID_155_" class="st2" d="M30.6,34.9l4.3-4.3c0.2-0.2,0.2-0.5,0-0.7l-0.6-0.6c-0.2-0.2-0.5-0.2-0.7,0L21.9,41l0,0l-6,6
		c-0.3,0.3-0.1,0.8,0.3,0.9c1.1,0.2,2.3,0.3,3.5,0.3c5.6,0,10.1-2,13.5-6.1c0.4-0.5,0.6-0.9,0.6-1.2c0-0.2-0.7-1.3-2-3.4
		c-0.5-0.8-1-1.4-1.3-1.9C30.4,35.4,30.4,35.1,30.6,34.9z"/>
</g>
</svg>
