<?xml version="1.0" encoding="UTF-8" standalone="no"?>
<!DOCTYPE svg PUBLIC "-//W3C//DTD SVG 1.1//EN" "http://www.w3.org/Graphics/SVG/1.1/DTD/svg11.dtd">
<!-- Generated by Microsoft Visio, SVG Export guest.svg Page-1 -->
<svg xmlns="http://www.w3.org/2000/svg" xmlns:xlink="http://www.w3.org/1999/xlink" xmlns:ev="http://www.w3.org/2001/xml-events"
		width="8.89089in" height="3.58677in" viewBox="0 0 640.144 258.248" xml:space="preserve" color-interpolation-filters="sRGB"
		class="st9">
	<style type="text/css">
	<![CDATA[
		.st1 {fill:#ffffff;stroke:#000000;stroke-dasharray:3.5,2.5;stroke-linecap:round;stroke-linejoin:round;stroke-width:0.5}
		.st2 {fill:#000000;font-family:Franklin Gothic Demi;font-size:1.00001em}
		.st3 {marker-end:url(#mrkr4-12);stroke:#000000;stroke-linecap:round;stroke-linejoin:round;stroke-width:0.5}
		.st4 {fill:#000000;fill-opacity:1;stroke:#000000;stroke-opacity:1;stroke-width:0.16556291390728}
		.st5 {font-size:1em}
		.st6 {fill:#ffffff;stroke:none;stroke-linecap:butt}
		.st7 {fill:#000000;font-family:Franklin Gothic Demi;font-size:0.666664em}
		.st8 {fill:#ffffff;stroke:none;stroke-linecap:butt;stroke-width:7.2}
		.st9 {fill:none;fill-rule:evenodd;font-size:12px;overflow:visible;stroke-linecap:square;stroke-miterlimit:3}
	]]>
	</style>

	<defs id="Markers">
		<g id="lend4">
			<path d="M 2 1 L 0 0 L 2 -1 L 2 1 " style="stroke:none"/>
		</g>
		<marker id="mrkr4-12" class="st4" refX="-12.08" orient="auto" markerUnits="strokeWidth" overflow="visible">
			<use xlink:href="#lend4" transform="scale(-6.04,-6.04) "/>
		</marker>
	</defs>
	<g>
		<title>Page-1</title>
		<g id="shape1-1" transform="translate(129.639,-169.18)">
			<title>Process</title>
			<desc>https://facebook.com</desc>
			<path d="M0 258.25 L166.56 258.25 L166.56 230.49 L0 230.49 L0 258.25 Z" class="st1"/>
			<text x="24.59" y="247.97" class="st2">https://facebook.com</text>		</g>
		<g id="shape2-4" transform="translate(29.7046,-136.794)">
			<title>Actor</title>
			<desc>Gost</desc>
			<path d="M8.88 258.25 L8.88 211.98 L8.88 230.49 L0 230.49 L0 193.48 L4.44 188.85 L39.97 188.85 L44.42 193.48 L44.42 230.49
						 L35.53 230.49 L35.53 211.98 L35.53 258.25 L22.21 258.25 L22.21 221.23 L22.21 258.25 L8.88 258.25 ZM31.46
						 174.97 A9.25322 9.25322 -180 1 0 12.95 174.97 A9.25322 9.25322 -180 1 0 31.46 174.97 Z" class="st1"/>
			<text x="10.2" y="273.05" class="st2">Gost</text>		</g>
		<g id="shape4-7" transform="translate(74.12,-175.974)">
			<title>Dynamic connector</title>
			<path d="M0 251.16 L49.48 251.16" class="st3"/>
		</g>
		<g id="shape8-13" transform="translate(296.197,-175.974)">
			<title>Dynamic connector.8</title>
			<path d="M0 251.16 L49.48 251.16" class="st3"/>
		</g>
		<g id="shape7-18" transform="translate(351.717,-140.495)">
			<title>Decision.7</title>
			<desc>Da li postoji u bazi?</desc>
			<path d="M0 215.68 L46.27 173.12 L92.53 215.68 L46.27 258.25 L0 215.68 Z" class="st1"/>
			<text x="10.39" y="212.08" class="st2">Da li postoji u <tspan x="32.53" dy="1.2em" class="st5">bazi?</tspan></text>		</g>
		<g id="shape14-22" transform="translate(390.896,-140.495)">
			<title>Dynamic connector.14</title>
			<desc>DA</desc>
			<path d="M7.09 258.25 L7.09 307.73" class="st3"/>
			<rect x="2.06125" y="281.207" width="10.0508" height="9.59985" class="st6"/>
			<text x="2.06" y="288.41" class="st7">DA</text>		</g>
		<g id="shape13-29" transform="translate(333.21,-29.4566)">
			<title>Process.13</title>
			<desc>Vrati heš koji je već u bazi</desc>
			<path d="M0 258.25 L129.55 258.25 L129.55 202.73 L0 202.73 L0 258.25 Z" class="st1"/>
			<text x="8.87" y="226.89" class="st2">Vrati heš koji je već u <tspan x="54.1" dy="1.2em" class="st5">bazi</tspan></text>		</g>
		<g id="shape16-33" transform="translate(444.249,-175.974)">
			<title>Dynamic connector.16</title>
			<desc>NE</desc>
			<path d="M0 251.16 L49.48 251.16" class="st3"/>
			<rect x="22.8944" y="246.361" width="9.73032" height="9.59985" class="st8"/>
			<text x="22.89" y="253.56" class="st7">NE</text>		</g>
		<g id="shape15-40" transform="translate(499.768,-155.3)">
			<title>Process.15</title>
			<desc>Napravi novi heš</desc>
			<path d="M0 258.25 L111.04 258.25 L111.04 202.73 L0 202.73 L0 258.25 Z" class="st1"/>
			<text x="12.41" y="234.09" class="st2">Napravi novi heš</text>		</g>
	</g>
</svg>
