<svg version="1.1" xmlns="http://www.w3.org/2000/svg" xmlns:xlink="http://www.w3.org/1999/xlink" width="476.18994140625" height="84"><defs/><g><g transform="translate(-118,-230) scale(1,1)"><rect fill="#ffffff" stroke="none" x="128" y="256" width="138.95166015625" height="32"/></g><g transform="translate(-118,-230) scale(1,1)"><path fill="none" stroke="#000000" d="M 128 256 L 266.95166015625 256 L 266.95166015625 288 L 128 288 L 128 256 Z Z" stroke-miterlimit="10"/></g><g transform="translate(-118,-230) scale(1,1)"><g><path fill="none" stroke="none"/><text fill="#000000" stroke="none" font-family="Arial" font-size="13px" font-style="normal" font-weight="normal" text-decoration="none" x="137.5" y="278.5">https://facebook.com</text></g></g><g transform="translate(-118,-230) scale(1,1)"><path fill="#ffffff" stroke="#000000" d="M 348 248 C 348 243.5817216 366.3294340546875 240 388.93994140625 240 C 411.5504487578125 240 429.8798828125 243.5817216 429.8798828125 248 L 429.8798828125 296 C 429.8798828125 300.4182784 411.5504487578125 304 388.93994140625 304 C 366.3294340546875 304 348 300.4182784 348 296 L 348 248 Z" stroke-miterlimit="10"/></g><g transform="translate(-118,-230) scale(1,1)"><path fill="none" stroke="#000000" d="M 348 248 C 348 252.4182784 366.3294340546875 256 388.93994140625 256 C 411.5504487578125 256 429.8798828125 252.4182784 429.8798828125 248" stroke-miterlimit="10"/></g><g transform="translate(-118,-230) scale(1,1)"><g><path fill="none" stroke="none"/><text fill="#000000" stroke="none" font-family="Arial" font-size="13px" font-style="normal" font-weight="normal" text-decoration="none" x="377.015869140625" y="276">Link</text><text fill="#000000" stroke="none" font-family="Arial" font-size="13px" font-style="normal" font-weight="normal" text-decoration="none" x="361.114990234375" y="289">generator</text></g></g><g transform="translate(-118,-230) scale(1,1)"><path fill="none" stroke="#000000" d="M 267 272 L 348 272" stroke-miterlimit="10"/></g><g transform="translate(-118,-230) scale(1,1)"><path fill="#000000" stroke="none" d="M 337.83732514237585 276.209517756016 L 348 272 L 337.83732514237585 267.790482243984"/></g><g transform="translate(-118,-230) scale(1,1)"><path fill="none" stroke="#000000" d="M 337.83732514237585 276.209517756016 L 348 272 L 337.83732514237585 267.790482243984 L 337.83732514237585 276.209517756016" stroke-miterlimit="10"/></g><g transform="translate(-118,-230) scale(1,1)"><rect fill="#ffffff" stroke="none" x="511" y="256" width="73.18994140625" height="32"/></g><g transform="translate(-118,-230) scale(1,1)"><path fill="none" stroke="#000000" d="M 511 256 L 584.18994140625 256 L 584.18994140625 288 L 511 288 L 511 256 Z Z" stroke-miterlimit="10"/></g><g transform="translate(-118,-230) scale(1,1)"><g><path fill="none" stroke="none"/><text fill="#000000" stroke="none" font-family="Arial" font-size="13px" font-style="normal" font-weight="normal" text-decoration="none" x="534.588623046875" y="278.5">f3Ac</text></g></g><g transform="translate(-118,-230) scale(1,1)"><path fill="none" stroke="#000000" d="M 430 272 L 511 272" stroke-miterlimit="10"/></g><g transform="translate(-118,-230) scale(1,1)"><path fill="#000000" stroke="none" d="M 500.83732514237585 276.209517756016 L 511 272 L 500.83732514237585 267.790482243984"/></g><g transform="translate(-118,-230) scale(1,1)"><path fill="none" stroke="#000000" d="M 500.83732514237585 276.209517756016 L 511 272 L 500.83732514237585 267.790482243984 L 500.83732514237585 276.209517756016" stroke-miterlimit="10"/></g></g></svg>